<?xml version="1.0" encoding="utf-8"?>
<!-- Generator: Adobe Illustrator 18.0.0, SVG Export Plug-In . SVG Version: 6.00 Build 0)  -->
<!DOCTYPE svg PUBLIC "-//W3C//DTD SVG 1.1//EN" "http://www.w3.org/Graphics/SVG/1.1/DTD/svg11.dtd">
<svg version="1.1" id="Capa_1" xmlns="http://www.w3.org/2000/svg" xmlns:xlink="http://www.w3.org/1999/xlink" x="0px" y="0px"
	 viewBox="0 0 100 100" enable-background="new 0 0 100 100" xml:space="preserve">
<path fill="#ddd" d="M82.8,67.6C88,64.1,99.3,57,96.5,49.3C93.3,40.7,81.8,33.9,74.6,29c-4.1-2.8-18.1-12.8-23-6.7c-0.3,0.3-0.4,0.8-0.3,1.2
	c-2,4.1-0.8,10.5-0.8,14.9c0,0.8,0,1.6,0,2.4c-14.7-0.1-30.7-4.9-45-0.7c-0.9,0.3-1.3,0.9-1.4,1.5c-0.1,0-0.2,0.1-0.3,0.1
	c-2.2,1.3-1.3,6.3-1.3,8.5c0,3.8-0.1,7.8,0.6,11.5c0.2,0.9,0.8,1.4,1.5,1.5C5,63.7,5.4,63.9,6,63.9c15.1-0.2,29.9-2,45-1.1
	c0,4.8-0.2,9.6-0.9,14.4c-0.1,0.6,0.1,1.1,0.3,1.5c-1,1.2,0.1,3.7,2.2,3.4C63.2,80.6,74.1,73.4,82.8,67.6z"/>
</svg>
