<?xml version="1.0" encoding="utf-8"?>
<!-- Generator: Adobe Illustrator 18.0.0, SVG Export Plug-In . SVG Version: 6.00 Build 0)  -->
<!DOCTYPE svg PUBLIC "-//W3C//DTD SVG 1.1//EN" "http://www.w3.org/Graphics/SVG/1.1/DTD/svg11.dtd">
<svg version="1.1" id="Capa_1" xmlns="http://www.w3.org/2000/svg" xmlns:xlink="http://www.w3.org/1999/xlink" x="0px" y="0px"
	 viewBox="0 0 100 100" enable-background="new 0 0 100 100" xml:space="preserve">
<path fill="#ddd" d="M16.9,31.9C11.8,35.3,0.3,42.5,3.2,50.3c3.2,8.6,14.8,15.5,22,20.4c4.1,2.8,18.3,12.9,23.2,6.8c0.3-0.3,0.4-0.8,0.3-1.2
	c2.1-4.1,0.8-10.6,0.8-15c0-0.8,0-1.6,0-2.4c14.9,0.1,30.9,5,45.3,0.7c0.9-0.3,1.3-0.9,1.4-1.6c0.1,0,0.2-0.1,0.3-0.1
	c2.2-1.3,1.3-6.4,1.4-8.5c0-3.8,0.1-7.8-0.7-11.6c-0.2-0.9-0.8-1.4-1.5-1.5c-0.3-0.3-0.8-0.5-1.4-0.5c-15.2,0.2-30.1,2-45.3,1.1
	c0-4.9,0.2-9.7,1-14.5c0.1-0.6-0.1-1.1-0.3-1.5c1-1.2-0.1-3.7-2.3-3.4C36.7,18.8,25.7,26,16.9,31.9z"/>
</svg>
