<?xml version="1.0" encoding="utf-8"?>
<!-- Generator: Adobe Illustrator 16.0.4, SVG Export Plug-In . SVG Version: 6.00 Build 0)  -->
<!DOCTYPE svg PUBLIC "-//W3C//DTD SVG 1.1//EN" "http://www.w3.org/Graphics/SVG/1.1/DTD/svg11.dtd">
<svg version="1.1" id="Layer_1" xmlns="http://www.w3.org/2000/svg" xmlns:xlink="http://www.w3.org/1999/xlink" x="0px" y="0px"
	 width="50px" height="50px" viewBox="0 0 50 50" enable-background="new 0 0 50 50" xml:space="preserve">
<path fill="#ddd" d="M44.372,26.496l-6.749,6.75c-0.562,0.562-1.326,0.879-2.122,0.879s-1.559-0.316-2.121-0.879l-6.75-6.75
	c-1.171-1.171-1.171-3.071,0-4.242c1.171-1.172,3.071-1.172,4.242,0l1.832,1.832C32.236,18.447,27.508,14,21.75,14
	c-6.064,0-11,4.935-11,11s4.936,11,11,11c1.657,0,3,1.343,3,3s-1.343,3-3,3c-9.373,0-17-7.626-17-17s7.627-17,17-17
	c8.936,0,16.266,6.933,16.935,15.698l1.443-1.444c1.172-1.172,3.072-1.172,4.242,0C45.542,23.425,45.542,25.324,44.372,26.496z"/>
</svg>
