<?xml version="1.0" encoding="iso-8859-1"?>
<!-- Generator: Adobe Illustrator 18.0.0, SVG Export Plug-In . SVG Version: 6.00 Build 0)  -->
<!DOCTYPE svg PUBLIC "-//W3C//DTD SVG 1.1//EN" "http://www.w3.org/Graphics/SVG/1.1/DTD/svg11.dtd">
<svg version="1.1" id="Capa_1" xmlns="http://www.w3.org/2000/svg" xmlns:xlink="http://www.w3.org/1999/xlink" x="0px" y="0px"
	 viewBox="0 0 62 62" style="enable-background:new 0 0 62 62;" xml:space="preserve">
<path fill="#ddd" d="M61.952,1.573c-0.005-0.024-0.016-0.047-0.022-0.07c-0.035-0.136-0.084-0.266-0.146-0.389
	c-0.01-0.02-0.013-0.043-0.024-0.063c-0.011-0.021-0.029-0.036-0.041-0.056c-0.071-0.121-0.152-0.233-0.245-0.336
	c-0.016-0.017-0.028-0.038-0.045-0.055c-0.111-0.114-0.237-0.211-0.372-0.296c-0.033-0.021-0.069-0.037-0.103-0.056
	c-0.109-0.06-0.224-0.109-0.344-0.148c-0.041-0.013-0.081-0.028-0.124-0.038C60.33,0.027,60.169,0,60,0H31
	c-0.636,0-1.233,0.302-1.61,0.813l-27.7,37.593C0.629,39.372,0,40.78,0,42.5v13.9C0,59.709,2.291,62,5.6,62h26.9
	c2.063,0,3.69-0.891,4.624-2.364c0.205-0.14,0.394-0.308,0.54-0.527l24-36C61.883,22.781,62,22.394,62,22V2
	C62,1.853,61.982,1.711,61.952,1.573z M32.011,4H56.29L41.158,27H15.063L32.011,4z M32.5,37H7.695l4.421-6h26.411l-4.14,6.293
	C33.807,37.115,33.185,37,32.5,37z M37.444,39.924L41,34.519v12.375l-3,4.5V42.5C38,41.532,37.793,40.674,37.444,39.924z M32.5,58
	H5.6C4.5,58,4,57.5,4,56.4V42.5c0-0.385,0.065-0.679,0.192-0.906c0.154-0.115,0.299-0.245,0.419-0.408l0.002-0.003
	C4.861,41.056,5.188,41,5.6,41H32h0.5c0.363,0,0.644,0.049,0.865,0.147c0.129,0.184,0.292,0.348,0.486,0.484
	C33.951,41.853,34,42.135,34,42.5v13.9C34,57.5,33.6,58,32.5,58z M45,40.894V28.439l13-19.76v12.715L45,40.894z"/>
<g>
</g>
<g>
</g>
<g>
</g>
<g>
</g>
<g>
</g>
<g>
</g>
<g>
</g>
<g>
</g>
<g>
</g>
<g>
</g>
<g>
</g>
<g>
</g>
<g>
</g>
<g>
</g>
<g>
</g>
</svg>
